<svg width="94" height="88" viewBox="0 0 94 88" fill="none" xmlns="http://www.w3.org/2000/svg">
<path d="M86.3099 31.336C90.4329 49.0534 79.5478 79.8036 46.9914 79.4533C11.9531 79.0762 5.10392 53.7991 5.52552 45.7824" stroke="#FAF9F6" stroke-width="2.99678"/>
<path d="M43.0561 32.5388C41.5346 39.2963 41.5853 45.6594 42.8292 50.4599C44.0952 55.3453 46.4517 58.1773 49.191 58.794C51.9303 59.4108 55.2732 57.862 58.5107 53.9906C61.692 50.1865 64.4649 44.459 65.9863 37.7016C67.5078 30.9441 67.4571 24.5809 66.2132 19.7805C64.9472 14.8951 62.5907 12.0631 59.8514 11.4463C57.1121 10.8296 53.7692 12.3783 50.5317 16.2498C47.3504 20.0539 44.5775 25.7813 43.0561 32.5388Z" fill="#FF82FE" stroke="#111111" stroke-width="2.99678"/>
<path d="M19.3566 27.2031C17.8352 33.9606 17.8858 40.3237 19.1298 45.1242C20.3957 50.0096 22.7522 52.8416 25.4915 53.4583C28.2308 54.0751 31.5737 52.5263 34.8113 48.6549C37.9925 44.8508 40.7654 39.1233 42.2868 32.3659C43.8083 25.6084 43.7576 19.2452 42.5137 14.4448C41.2477 9.55938 38.8912 6.72737 36.1519 6.11062C33.4126 5.49386 30.0698 7.04265 26.8322 10.9141C23.6509 14.7182 20.8781 20.4456 19.3566 27.2031Z" fill="#FF82FE" stroke="#111111" stroke-width="2.99678"/>
<path d="M59.9496 42.0019C56.7178 41.2742 51.5142 37.5748 53.6809 27.9515" stroke="#111111" stroke-width="2.99678"/>
<path d="M41.9242 37.9435C45.1559 38.6711 51.4429 37.5589 53.6096 27.9355" stroke="#111111" stroke-width="2.99678"/>
<path d="M41.7453 37.9032C44.977 38.6308 50.1806 42.3302 48.0139 51.9536" stroke="#111111" stroke-width="2.99678"/>
<path d="M59.7726 41.9618C56.5409 41.2341 50.2539 42.3464 48.0872 51.9698" stroke="#111111" stroke-width="2.99678"/>
<path d="M36.4711 36.5268C33.2393 35.7991 28.0357 32.0997 30.2024 22.4764" stroke="#111111" stroke-width="2.99678"/>
<path d="M18.4458 32.4682C21.6775 33.1958 27.9645 32.0835 30.1312 22.4602" stroke="#111111" stroke-width="2.99678"/>
<path d="M18.2667 32.4283C21.4985 33.1559 26.7021 36.8553 24.5354 46.4787" stroke="#111111" stroke-width="2.99678"/>
<path d="M36.2941 36.4869C33.0624 35.7593 26.7754 36.8716 24.6087 46.4949" stroke="#111111" stroke-width="2.99678"/>
</svg>
