<svg width="94" height="88" viewBox="0 0 94 88" fill="none" xmlns="http://www.w3.org/2000/svg">
<path d="M6.74963 31.3353C2.62666 49.0527 13.5117 79.8029 46.0682 79.4525C81.1064 79.0754 87.9556 53.7983 87.5341 45.7816" stroke="#FAF9F6" stroke-width="2.99678"/>
<path d="M50.0036 32.5381C51.5251 39.2955 51.4744 45.6587 50.2305 50.4591C48.9645 55.3445 46.608 58.1765 43.8687 58.7933C41.1294 59.4101 37.7865 57.8613 34.549 53.9898C31.3677 50.1857 28.5948 44.4583 27.0734 37.7008C25.5519 30.9433 25.6026 24.5802 26.8465 19.7797C28.1125 14.8943 30.469 12.0623 33.2083 11.4456C35.9476 10.8288 39.2905 12.3776 42.528 16.249C45.7093 20.0532 48.4822 25.7806 50.0036 32.5381Z" fill="#9AFEBA" stroke="#111111" stroke-width="2.99678"/>
<path d="M73.703 27.2024C75.2244 33.9598 75.1737 40.323 73.9298 45.1234C72.6639 50.0088 70.3073 52.8409 67.568 53.4576C64.8287 54.0744 61.4859 52.5256 58.2483 48.6541C55.067 44.85 52.2942 39.1226 50.7727 32.3651C49.2513 25.6076 49.3019 19.2445 50.5459 14.4441C51.8118 9.55865 54.1683 6.72664 56.9076 6.10988C59.6469 5.49313 62.9898 7.04192 66.2274 10.9133C69.4086 14.7175 72.1815 20.4449 73.703 27.2024Z" fill="#9AFEBA" stroke="#111111" stroke-width="2.99678"/>
<path d="M33.11 42.0011C36.3417 41.2735 41.5453 37.5741 39.3786 27.9507" stroke="#111111" stroke-width="2.99678"/>
<path d="M51.1354 37.9428C47.9037 38.6704 41.6167 37.5581 39.45 27.9348" stroke="#111111" stroke-width="2.99678"/>
<path d="M51.3143 37.9024C48.0826 38.6301 42.879 42.3295 45.0457 51.9528" stroke="#111111" stroke-width="2.99678"/>
<path d="M33.2871 41.9611C36.5188 41.2335 42.8058 42.3458 44.9725 51.9692" stroke="#111111" stroke-width="2.99678"/>
<path d="M56.5885 36.526C59.8202 35.7984 65.0239 32.099 62.8571 22.4756" stroke="#111111" stroke-width="2.99678"/>
<path d="M74.6138 32.4676C71.3821 33.1952 65.0951 32.0829 62.9284 22.4595" stroke="#111111" stroke-width="2.99678"/>
<path d="M74.7928 32.4276C71.5611 33.1552 66.3575 36.8546 68.5242 46.478" stroke="#111111" stroke-width="2.99678"/>
<path d="M56.7655 36.4862C59.9972 35.7585 66.2842 36.8708 68.4509 46.4942" stroke="#111111" stroke-width="2.99678"/>
</svg>
