<svg width="143" height="125" viewBox="0 0 143 125" fill="none" xmlns="http://www.w3.org/2000/svg">
<g clip-path="url(#clip0_424_62)">
<path d="M59.5608 72.2423C58.4194 65.878 57.0631 59.5478 55.5204 53.3008C55.0544 51.3251 54.5427 49.374 53.934 47.4607C53.5992 46.435 52.7926 46.0017 51.9309 46.2061C51.0692 46.4104 50.5994 47.1182 50.7154 48.1799C50.7725 48.8233 50.9437 49.4743 51.0464 50.0988L55.5204 71.5857C55.5946 71.8885 55.7392 72.2158 55.4424 72.5678L54.731 71.6954C53.3062 69.9676 51.9556 68.1509 50.7002 66.2944C50.1904 65.5109 49.4675 65.2668 48.6914 65.5374C47.9153 65.808 47.5501 66.4136 47.6452 67.3787C47.7213 68.0714 47.8354 68.7432 47.9229 69.4359C48.1949 71.9944 48.4194 74.572 48.5183 77.3747C48.2748 77.2006 48.2064 77.1722 48.1873 77.1267L48.0447 77.1873C44.788 72.4032 41.5276 67.6172 38.5792 62.6439C37.2077 60.3918 35.7144 58.2477 34.4837 55.9332C34.0481 55.0608 33.2092 54.811 32.4065 55.1554C31.6037 55.4999 31.2157 56.2909 31.442 57.1879C31.5583 57.5633 31.6994 57.9306 31.8643 58.2874C33.232 61.0428 34.8147 63.6525 36.3517 66.2792C38.621 70.208 41.248 73.9266 43.7704 77.6869C44.9869 79.5173 46.3126 81.2734 47.7403 82.946C48.3909 83.6689 49.127 84.0815 50.1542 83.8563C51.3869 83.6046 51.8796 83.0577 52.0279 81.6005C52.2181 79.7308 52.0964 77.8913 52.1307 76.0367C52.1573 75.5806 51.9994 75.0905 52.2543 74.6457C52.6347 74.8728 52.844 75.2286 53.1008 75.5636C54.1586 76.919 55.2855 78.2196 56.4772 79.4601C56.9585 79.9219 57.4398 80.3837 58.1493 80.4707C59.8613 80.677 61.1358 79.3504 60.6926 77.8213C60.1828 75.9894 59.9184 74.0951 59.5608 72.2423Z" fill="black"/>
<path d="M71.0101 47.4077L71.0728 47.4436C70.2587 46.1757 69.26 45.01 67.9399 44.2435C65.9425 43.127 63.8139 43.5244 62.3778 45.3317C61.7859 46.0774 61.3436 46.9293 61.0747 47.8411C60.7206 49.0441 60.4774 50.2768 60.3481 51.5238C59.9144 55.7118 60.3652 59.8259 61.2992 63.9212C61.9897 67.127 63.0759 70.2268 64.7346 73.075C65.5107 74.3997 66.4257 75.6449 67.685 76.5854C70.0647 78.3435 72.7031 77.8629 74.28 75.3856C74.6893 74.7341 75.0037 74.0281 75.214 73.2888C75.626 71.9343 75.8813 70.5375 75.9749 69.1254C76.3211 64.805 75.7314 60.5659 74.7042 56.2871C73.8292 53.2289 72.8039 50.1631 71.0101 47.4077ZM72.256 67.9786C72.2365 69.2577 72.0556 70.5292 71.7177 71.7635C71.5515 72.2991 71.3323 72.8171 71.0633 73.3096C70.7571 73.76 70.409 73.8509 69.9562 73.5462C69.3691 73.0956 68.8646 72.5476 68.4649 71.9262C67.2437 70.1303 66.4447 68.1186 65.8018 66.0597C65.5811 65.4314 65.4613 64.7747 65.2901 64.1313C64.2553 60.2215 63.7436 56.2833 64.0061 52.2467L64.0175 52.2959C64.0886 51.0475 64.355 49.8178 64.8069 48.651C65.4251 47.1655 65.9349 47.086 66.9983 48.2877C68.0616 49.4894 68.8035 50.8822 69.4084 52.364C71.4662 57.3072 72.4372 62.6312 72.256 67.9786V67.9786Z" fill="black"/>
<path d="M97.6262 37.0447C96.7379 37.0239 96.1045 37.5841 95.9428 38.642C95.8324 39.2797 95.8305 39.9515 95.7697 40.5817C95.3664 47.8866 94.9638 55.1908 94.5618 62.4944C94.5618 62.8047 94.6112 63.1586 94.2346 63.4217C94.0786 63.0836 93.9232 62.7448 93.7685 62.4054C92.8364 60.3711 91.9976 58.2723 91.2614 56.1604C90.9723 55.2728 90.3369 54.8508 89.5132 54.9208C88.6896 54.9908 88.195 55.4885 88.0276 56.4348C87.9249 57.1217 87.8697 57.803 87.767 58.49C87.3713 61.0334 86.9262 63.5825 86.2985 66.3152C86.1083 66.0844 86.0493 66.0408 86.0417 65.9916L85.8895 66.0143C83.9721 60.5584 82.0546 55.1025 80.4834 49.55C79.7377 47.0236 78.8475 44.5691 78.2521 42.02C78.0618 41.0738 77.3009 40.6082 76.4468 40.7388C75.5927 40.8694 75.005 41.5242 74.9897 42.4571C75.0056 42.8499 75.0476 43.2413 75.1153 43.6286C75.7278 46.6413 76.5857 49.5652 77.398 52.4947C78.5811 56.8719 80.1619 61.1356 81.6418 65.4163C82.3457 67.4935 83.1734 69.527 84.1204 71.5062C84.5637 72.373 85.1705 72.9521 86.2129 73.0032C87.4703 73.0751 88.0847 72.6701 88.6059 71.3C89.2755 69.5438 89.6255 67.7308 90.1277 65.9481C90.2703 65.5128 90.2456 65.0019 90.6051 64.6366C90.9133 64.9508 91.0255 65.3482 91.1891 65.738C91.8649 67.3198 92.6217 68.8661 93.4566 70.3708C93.8028 70.9385 94.149 71.5062 94.8129 71.7731C96.4183 72.4127 97.9896 71.4532 97.9553 69.8522C97.9249 67.9427 98.1589 66.0446 98.2901 64.1635C98.8227 57.7197 99.1442 51.257 99.2641 44.8246C99.3211 42.7978 99.3268 40.7785 99.2317 38.7688C99.1728 37.692 98.507 37.0637 97.6262 37.0447Z" fill="black"/>
<path d="M142.304 80.342C132.568 74.8842 119.858 68.9873 113.826 59.1201C108.172 49.8585 119.69 40.8428 126.034 35.8297C126.985 35.0841 126.213 33.3241 125.037 33.4358C117.415 34.1568 108.243 34.4653 102.665 28.3262C96.5781 21.6193 99.3572 9.41681 101.143 1.71454C101.549 -0.0454356 99.051 -0.696441 98.4518 0.978376C95.1647 10.1359 91.2651 21.2503 83.6144 27.7963C72.5358 37.2756 66.6484 7.33891 65.4804 1.98896C65.2046 0.730482 63.0665 0.652892 62.8516 1.98896C61.4953 10.4709 60.5023 21.8597 54.0081 28.2618C47.2362 34.927 34.5768 27.8833 28.0141 24.4769C27.5196 24.0189 26.9051 24.159 26.5076 24.5659C25.9674 25.0295 25.7904 25.9057 26.4372 26.4091C31.2517 32.3722 38.3451 42.3246 27.7973 46.2704C19.7242 49.2983 9.82885 48.5224 1.36964 48.3842C-0.342367 48.3558 -0.408945 50.5946 0.989193 51.1472C7.69645 53.7966 14.1964 57.1652 19.4313 62.1859C27.0516 69.4945 22.8781 77.0851 15.3491 82.3234C13.9662 83.2848 14.8317 85.2529 16.4676 84.9728C24.0252 83.6481 31.6113 84.7268 32.5966 93.5683C33.6885 103.373 28.5316 114.274 24.592 122.901C23.8064 124.623 25.9635 125.823 27.0992 124.358C34.4722 114.856 42.7165 103.074 53.6619 97.2965C62.6746 92.5388 64.5236 104.991 65.197 111.096C65.3701 112.663 67.5405 113.121 68.0503 111.475C70.0838 104.851 72.3665 97.5633 77.6908 92.7811C84.4323 86.7252 94.0253 93.9052 99.3895 98.2692C100.531 99.2022 102.037 98.326 101.794 96.8744C100.843 91.1574 99.6616 83.4229 105.671 80.0619C109.234 78.0692 113.987 78.3341 117.908 78.548C125.783 78.987 133.614 80.9816 141.218 82.9517C142.758 83.3415 143.732 81.1444 142.304 80.342ZM103.62 77.9064C97.9515 81.0744 97.7555 87.9629 98.4632 93.909C92.9847 89.7815 85.897 85.6825 79.2944 88.5155C72.8535 91.2785 69.4789 98.1405 67.1525 104.775C65.9027 98.7839 63.2035 92.537 56.4639 93.3715C51.6664 93.9658 47.4777 97.6768 44.0271 100.741C39.5036 104.756 35.4423 109.31 31.5903 114.018C34.5978 106.348 36.7511 98.0799 34.9706 90.3474C33.3556 83.3453 27.0345 81.5059 20.7838 81.6592C25.6611 77.1778 28.4669 71.5857 25.0162 64.7047C21.9727 58.6186 15.2597 54.4325 8.69131 51.3705C17.1068 51.5389 26.5951 51.2267 32.9143 46.5523C39.0204 42.0351 35.5184 34.6507 31.6075 29.0945C38.8036 32.6182 47.4854 35.7408 54.3847 31.32C60.8219 27.1964 63.057 17.8836 64.3809 9.80097C66.8405 20.1697 71.8624 35.4437 82.1478 31.8083C86.7321 30.1864 89.8746 25.2642 92.2695 21.3563C93.7781 18.8697 95.1386 16.2973 96.3441 13.6521C96.0074 19.2065 96.7359 24.7286 99.9089 29.3121C104.429 35.8392 113.103 36.8422 120.727 36.5337C114.115 42.1013 107.179 49.5916 110.396 58.4861C112.068 63.1056 116.224 66.652 119.951 69.6156C123.599 72.5167 127.535 75.0678 131.554 77.4712C122.1 75.1718 111.375 73.5727 103.62 77.9064V77.9064Z" fill="black"/>
<path d="M119.169 61.0107C116.658 58.2685 115.967 55.0911 114.472 51.8418C114.442 51.7774 114.356 51.8172 114.352 51.8721C113.844 58.2137 120.316 65.2536 125.718 67.7383C125.764 67.7642 125.818 67.7727 125.87 67.7621C125.922 67.7515 125.969 67.7227 126.001 67.6808C126.034 67.639 126.05 67.587 126.047 67.5343C126.044 67.4816 126.021 67.4318 125.984 67.3939C124.006 65.0132 121.275 63.31 119.169 61.0107Z" fill="black"/>
<path d="M128.296 69.6761C128.844 70.0546 129.302 70.4028 129.981 70.4104C130.005 70.4102 130.029 70.4038 130.05 70.3917C130.071 70.3796 130.088 70.3622 130.1 70.3414C130.112 70.3206 130.119 70.2969 130.119 70.2728C130.119 70.2488 130.113 70.2251 130.101 70.2041C129.787 69.6686 129.351 69.4755 128.83 69.1557C128.309 68.8359 127.862 68.5009 127.375 68.1811C127.185 68.0524 126.957 68.3022 127.063 68.4933C127.358 69.0213 127.803 69.3355 128.296 69.6761Z" fill="black"/>
<path d="M18.967 65.9783C19.9182 67.2444 20.0038 68.6277 20.2282 70.1417C20.2357 70.1675 20.2497 70.1908 20.269 70.2096C20.2883 70.2283 20.3121 70.2418 20.3382 70.2487C20.3642 70.2555 20.3916 70.2556 20.4177 70.2487C20.4438 70.2419 20.4676 70.2285 20.4869 70.2098C24.1468 65.509 12.0011 58.3536 8.6056 57.4301C8.58456 57.4246 8.56236 57.4254 8.54179 57.4325C8.52122 57.4395 8.50319 57.4524 8.48998 57.4696C8.47676 57.4868 8.46895 57.5075 8.46752 57.5291C8.4661 57.5507 8.47112 57.5722 8.48195 57.591C9.78879 59.5213 12.6669 60.7097 14.5691 62.0042C16.1993 63.115 17.7686 64.3905 18.967 65.9783Z" fill="black"/>
<path d="M57.6355 15.6278C57.664 15.3515 57.2741 15.3515 57.1847 15.5691C55.5469 19.6114 53.9261 23.6669 50.175 26.2198C46.5912 28.6573 43.0911 27.291 39.4407 26.0666C39.4195 26.0614 39.3972 26.0632 39.3772 26.0717C39.3572 26.0802 39.3404 26.0949 39.3295 26.1137C39.3186 26.1324 39.3141 26.1542 39.3166 26.1757C39.3192 26.1973 39.3287 26.2174 39.3437 26.2331C47.0705 34.2628 56.8271 23.455 57.6355 15.6278Z" fill="black"/>
<path d="M58.1758 13.7278C59.1554 12.9311 59.1859 11.1106 59.2696 9.95621C59.2696 9.81427 59.0793 9.78021 59.0147 9.88808C58.669 10.426 58.4217 11.0206 58.2842 11.6443C58.1435 12.2858 57.9038 12.9841 57.9722 13.6427C57.9731 13.6658 57.9806 13.6881 57.9938 13.7071C58.007 13.7261 58.0253 13.7409 58.0467 13.7499C58.0681 13.7588 58.0916 13.7615 58.1145 13.7576C58.1374 13.7537 58.1586 13.7434 58.1758 13.7278Z" fill="black"/>
<path d="M59.4941 100.118C55.3967 98.695 51.2879 101.704 48.1854 104.049C44.3029 106.986 40.1237 110.712 37.356 114.733C37.2875 114.834 37.4207 114.955 37.5177 114.896C45.2845 110.165 49.6349 101.753 59.4447 100.476C59.4846 100.469 59.5213 100.45 59.5494 100.421C59.5776 100.392 59.5958 100.355 59.6013 100.315C59.6068 100.275 59.5994 100.234 59.5801 100.199C59.5608 100.164 59.5307 100.135 59.4941 100.118Z" fill="black"/>
<path d="M36.5533 115.948C36.268 116.015 36.1995 115.96 35.9541 116.17C35.6441 116.439 35.393 116.876 35.1533 117.203C34.7215 117.795 34.0861 118.498 34.0386 119.26C34.0385 119.285 34.0443 119.31 34.0555 119.333C34.0667 119.355 34.083 119.375 34.1031 119.39C34.1231 119.405 34.1465 119.416 34.1713 119.42C34.1961 119.425 34.2216 119.424 34.2459 119.417C34.8775 119.171 35.2408 118.488 35.5946 117.949C35.821 117.602 36.0549 117.258 36.2984 116.923C36.4164 116.758 36.5248 116.63 36.6275 116.459C36.7131 116.317 36.6275 116.196 36.6541 116.049C36.6574 116.035 36.6571 116.02 36.6532 116.007C36.6494 115.993 36.642 115.981 36.6319 115.971C36.6218 115.96 36.6093 115.953 36.5955 115.949C36.5818 115.945 36.5672 115.945 36.5533 115.948V115.948Z" fill="black"/>
<path d="M84.2668 92.4631C80.2969 92.8794 74.9249 97.3948 74.2839 101.422C74.2554 101.611 74.4874 101.8 74.6358 101.624C75.9084 100.078 76.928 98.4073 78.3927 97.0182C80.196 95.2999 82.4007 94.329 84.3828 92.8889C84.5445 92.7697 84.5179 92.4385 84.2668 92.4631Z" fill="black"/>
<path d="M112.463 80.8966C108.33 81.171 102.406 86.2919 103.605 90.8376C103.613 90.8627 103.627 90.885 103.648 90.902C103.668 90.919 103.692 90.9299 103.718 90.9335C103.745 90.937 103.771 90.9331 103.795 90.9222C103.819 90.9112 103.84 90.8937 103.854 90.8716C104.995 88.9546 105.534 87.0319 107.088 85.3268C108.642 83.6217 110.85 82.7228 112.604 81.224C112.633 81.1974 112.653 81.1627 112.661 81.1246C112.669 81.0865 112.665 81.0469 112.649 81.0111C112.634 80.9752 112.608 80.9451 112.575 80.9246C112.541 80.9041 112.502 80.8943 112.463 80.8966Z" fill="black"/>
<path d="M116.268 30.6634C116.299 30.6547 116.325 30.6363 116.345 30.611C116.364 30.5857 116.374 30.555 116.374 30.5233C116.374 30.4917 116.364 30.461 116.345 30.4357C116.325 30.4104 116.299 30.392 116.268 30.3833C113.605 29.7891 110.9 29.3709 108.425 28.1786C105.597 26.8179 104.075 24.6492 102.58 22.03C102.568 22.0113 102.551 21.9967 102.53 21.9885C102.509 21.9804 102.487 21.9791 102.465 21.9849C102.444 21.9906 102.425 22.0031 102.411 22.0204C102.398 22.0378 102.39 22.0591 102.389 22.0811C102.842 28.1464 110.942 31.7781 116.268 30.6634Z" fill="black"/>
<path d="M89.7585 15.2777C89.7629 15.2374 89.7541 15.1967 89.7335 15.1617C89.7129 15.1267 89.6815 15.0993 89.644 15.0834C89.6065 15.0675 89.5648 15.064 89.5252 15.0734C89.4855 15.0828 89.45 15.1047 89.4237 15.1358C86.3916 19.6966 84.4494 26.6173 77.9952 27.0317C77.9803 27.0327 77.9662 27.0388 77.9554 27.0489C77.9445 27.059 77.9374 27.0725 77.9354 27.0872C77.9334 27.1019 77.9365 27.1168 77.9443 27.1295C77.9521 27.1421 77.964 27.1517 77.9781 27.1566C84.0842 29.2156 88.446 19.7136 89.7585 15.2777Z" fill="black"/>
<path d="M28.2311 43.0324C28.2139 43.0619 28.2071 43.0963 28.2115 43.1302C28.216 43.164 28.2316 43.1955 28.2559 43.2196C28.2802 43.2438 28.3118 43.2593 28.3458 43.2637C28.3798 43.2682 28.4144 43.2614 28.4441 43.2443C31.2271 41.507 32.4902 37.4705 30.2988 34.7056C30.2794 34.6867 30.2548 34.6739 30.2282 34.6688C30.2016 34.6636 30.174 34.6664 30.1489 34.6766C30.1238 34.6869 30.1023 34.7043 30.087 34.7266C30.0717 34.7489 30.0634 34.7751 30.0629 34.8021C30.0971 36.2896 30.6526 37.5916 30.3235 39.1074C30.0154 40.5268 28.9444 41.7947 28.2311 43.0324Z" fill="black"/>
<path d="M29.1459 99.4823C30.7609 96.0229 30.8256 89.0189 26.1252 87.7661C26.1039 87.7613 26.0815 87.7633 26.0615 87.7719C26.0414 87.7806 26.0246 87.7954 26.0135 87.8142C26.0025 87.833 25.9978 87.8548 26.0001 87.8765C26.0024 87.8981 26.0116 87.9185 26.0263 87.9346C27.3065 89.4921 28.4041 90.6994 28.8796 92.7281C29.3647 94.8287 29.009 97.1962 28.7199 99.3006C28.6723 99.541 29.0166 99.7491 29.1459 99.4823Z" fill="black"/>
</g>
<defs>
<clipPath id="clip0_424_62">
<rect width="143" height="125" fill="white"/>
</clipPath>
</defs>
</svg>
